<?xml version="1.0" encoding="UTF-8" standalone="no"?>
<!DOCTYPE svg PUBLIC "-//W3C//DTD SVG 1.1//EN"
 "http://www.w3.org/Graphics/SVG/1.1/DTD/svg11.dtd">
<!-- Generated by graphviz version 2.40.1 (20161225.0304)
 -->
<!-- Title: deepstreamClientStates Pages: 1 -->
<svg width="476pt" height="547pt"
 viewBox="0.00 0.00 476.00 547.00" xmlns="http://www.w3.org/2000/svg" xmlns:xlink="http://www.w3.org/1999/xlink">
<g id="graph0" class="graph" transform="scale(1 1) rotate(0) translate(4 543)">
<title>deepstreamClientStates</title>
<polygon fill="#ffffff" stroke="transparent" points="-4,4 -4,-543 472,-543 472,4 -4,4"/>
<!-- await_conn -->
<g id="node1" class="node">
<title>await_conn</title>
<polygon fill="none" stroke="#000000" points="180,-539 0,-539 0,-503 180,-503 180,-539"/>
<text text-anchor="middle" x="90" y="-516.8" font-family="Times,serif" font-size="14.00" fill="#000000">Awaiting connection</text>
</g>
<!-- challenging -->
<g id="node2" class="node">
<title>challenging</title>
<polygon fill="none" stroke="#000000" points="180,-453 0,-453 0,-417 180,-417 180,-453"/>
<text text-anchor="middle" x="90" y="-430.8" font-family="Times,serif" font-size="14.00" fill="#000000">Challenging</text>
</g>
<!-- await_conn&#45;&gt;challenging -->
<g id="edge1" class="edge">
<title>await_conn&#45;&gt;challenging</title>
<path fill="none" stroke="#000000" d="M90,-502.7616C90,-491.3597 90,-476.4342 90,-463.494"/>
<polygon fill="#000000" stroke="#000000" points="93.5001,-463.2121 90,-453.2121 86.5001,-463.2121 93.5001,-463.2121"/>
<text text-anchor="middle" x="109.7422" y="-473.8" font-family="Times,serif" font-size="14.00" fill="#000000">C|CH+</text>
</g>
<!-- challenging_wait -->
<g id="node3" class="node">
<title>challenging_wait</title>
<polygon fill="none" stroke="#000000" points="180,-367 0,-367 0,-331 180,-331 180,-367"/>
<text text-anchor="middle" x="90" y="-344.8" font-family="Times,serif" font-size="14.00" fill="#000000">Challenging wait</text>
</g>
<!-- challenging&#45;&gt;challenging_wait -->
<g id="edge2" class="edge">
<title>challenging&#45;&gt;challenging_wait</title>
<path fill="none" stroke="#000000" d="M90,-416.7616C90,-405.3597 90,-390.4342 90,-377.494"/>
<polygon fill="#000000" stroke="#000000" points="93.5001,-377.2121 90,-367.2121 86.5001,-377.2121 93.5001,-377.2121"/>
<text text-anchor="middle" x="123.5884" y="-387.8" font-family="Times,serif" font-size="14.00" fill="#0000ff">C|CHR|url+</text>
</g>
<!-- challenging_wait&#45;&gt;await_conn -->
<g id="edge7" class="edge">
<title>challenging_wait&#45;&gt;await_conn</title>
<path fill="none" stroke="#000000" d="M138.0102,-367.0352C158.8197,-377.8584 180.3826,-394.0651 189,-417 194.6276,-431.9776 196.4518,-438.8412 189,-453 178.86,-472.2664 160.5224,-487.1287 142.361,-497.9744"/>
<polygon fill="#000000" stroke="#000000" points="140.4846,-495.0144 133.4963,-502.9777 143.9253,-501.1105 140.4846,-495.0144"/>
<text text-anchor="middle" x="241.1885" y="-430.8" font-family="Times,serif" font-size="14.00" fill="#000000">C|RED|new&#45;url+</text>
</g>
<!-- await_auth -->
<g id="node4" class="node">
<title>await_auth</title>
<polygon fill="none" stroke="#000000" points="180,-281 0,-281 0,-245 180,-245 180,-281"/>
<text text-anchor="middle" x="90" y="-258.8" font-family="Times,serif" font-size="14.00" fill="#000000">Awaiting authentication</text>
</g>
<!-- challenging_wait&#45;&gt;await_auth -->
<g id="edge3" class="edge">
<title>challenging_wait&#45;&gt;await_auth</title>
<path fill="none" stroke="#000000" d="M90,-330.7616C90,-319.3597 90,-304.4342 90,-291.494"/>
<polygon fill="#000000" stroke="#000000" points="93.5001,-291.2121 90,-281.2121 86.5001,-291.2121 93.5001,-291.2121"/>
<text text-anchor="middle" x="105.0732" y="-301.8" font-family="Times,serif" font-size="14.00" fill="#000000">C|A+</text>
</g>
<!-- closed_cw -->
<g id="node8" class="node">
<title>closed_cw</title>
<polygon fill="none" stroke="#000000" points="468,-367 288,-367 288,-331 468,-331 468,-367"/>
<text text-anchor="middle" x="378" y="-344.8" font-family="Times,serif" font-size="14.00" fill="#000000">Connection closed</text>
</g>
<!-- challenging_wait&#45;&gt;closed_cw -->
<g id="edge8" class="edge">
<title>challenging_wait&#45;&gt;closed_cw</title>
<path fill="none" stroke="#000000" d="M180.3348,-349C211.2963,-349 246.1202,-349 277.8143,-349"/>
<polygon fill="#000000" stroke="#000000" points="277.9858,-352.5001 287.9857,-349 277.9857,-345.5001 277.9858,-352.5001"/>
<text text-anchor="middle" x="234" y="-354.8" font-family="Times,serif" font-size="14.00" fill="#000000">C|REJ|reason+</text>
</g>
<!-- auth -->
<g id="node5" class="node">
<title>auth</title>
<polygon fill="none" stroke="#000000" points="180,-195 0,-195 0,-159 180,-159 180,-195"/>
<text text-anchor="middle" x="90" y="-172.8" font-family="Times,serif" font-size="14.00" fill="#000000">Authenticating</text>
</g>
<!-- await_auth&#45;&gt;auth -->
<g id="edge4" class="edge">
<title>await_auth&#45;&gt;auth</title>
<path fill="none" stroke="#000000" d="M90,-244.7616C90,-233.3597 90,-218.4342 90,-205.494"/>
<polygon fill="#000000" stroke="#000000" points="93.5001,-205.2121 90,-195.2121 86.5001,-205.2121 93.5001,-205.2121"/>
<text text-anchor="middle" x="127.8574" y="-215.8" font-family="Times,serif" font-size="14.00" fill="#0000ff">A|REQ|auth+</text>
</g>
<!-- auth&#45;&gt;await_auth -->
<g id="edge9" class="edge">
<title>auth&#45;&gt;await_auth</title>
<path fill="none" stroke="#000000" d="M150.4643,-195.0919C165.68,-202.9818 175.5573,-213.5527 167,-227 164.1516,-231.4761 160.5845,-235.405 156.5567,-238.8521"/>
<polygon fill="#000000" stroke="#000000" points="154.3016,-236.1657 148.3113,-244.9045 158.4437,-241.8087 154.3016,-236.1657"/>
<text text-anchor="middle" x="195.5752" y="-215.8" font-family="Times,serif" font-size="14.00" fill="#000000">A|E|IAD</text>
</g>
<!-- open -->
<g id="node6" class="node">
<title>open</title>
<polygon fill="none" stroke="#000000" points="180,-109 0,-109 0,-73 180,-73 180,-109"/>
<text text-anchor="middle" x="90" y="-86.8" font-family="Times,serif" font-size="14.00" fill="#000000">Connection open</text>
</g>
<!-- auth&#45;&gt;open -->
<g id="edge5" class="edge">
<title>auth&#45;&gt;open</title>
<path fill="none" stroke="#000000" d="M90,-158.7616C90,-147.3597 90,-132.4342 90,-119.494"/>
<polygon fill="#000000" stroke="#000000" points="93.5001,-119.2121 90,-109.2121 86.5001,-119.2121 93.5001,-119.2121"/>
<text text-anchor="middle" x="105.4595" y="-129.8" font-family="Times,serif" font-size="14.00" fill="#000000">A|A+</text>
</g>
<!-- closed_a -->
<g id="node9" class="node">
<title>closed_a</title>
<polygon fill="none" stroke="#000000" points="468,-195 288,-195 288,-159 468,-159 468,-195"/>
<text text-anchor="middle" x="378" y="-172.8" font-family="Times,serif" font-size="14.00" fill="#000000">Connection closed</text>
</g>
<!-- auth&#45;&gt;closed_a -->
<g id="edge10" class="edge">
<title>auth&#45;&gt;closed_a</title>
<path fill="none" stroke="#000000" d="M180.3348,-177C211.2963,-177 246.1202,-177 277.8143,-177"/>
<polygon fill="#000000" stroke="#000000" points="277.9858,-180.5001 287.9857,-177 277.9857,-173.5001 277.9858,-180.5001"/>
<text text-anchor="middle" x="234" y="-182.8" font-family="Times,serif" font-size="14.00" fill="#000000">A|E|TMAA</text>
</g>
<!-- Connection closed -->
<g id="node7" class="node">
<title>Connection closed</title>
<polygon fill="none" stroke="#000000" points="180,-36 0,-36 0,0 180,0 180,-36"/>
<text text-anchor="middle" x="90" y="-13.8" font-family="Times,serif" font-size="14.00" fill="#000000">Connection closed</text>
</g>
<!-- open&#45;&gt;Connection closed -->
<g id="edge6" class="edge">
<title>open&#45;&gt;Connection closed</title>
<path fill="none" stroke="#000000" d="M90,-72.9551C90,-64.8828 90,-55.1764 90,-46.1817"/>
<polygon fill="#000000" stroke="#000000" points="93.5001,-46.0903 90,-36.0904 86.5001,-46.0904 93.5001,-46.0903"/>
</g>
</g>
</svg>
